<svg width="145" height="145" viewBox="0 0 145 145" fill="none" xmlns="http://www.w3.org/2000/svg">
<path d="M126.875 126.875H13.5938C12.392 126.875 11.2394 126.398 10.3897 125.548C9.5399 124.698 9.0625 123.546 9.0625 122.344V31.7188C9.0625 30.517 9.5399 29.3644 10.3897 28.5147C11.2394 27.6649 12.392 27.1875 13.5938 27.1875C14.7955 27.1875 15.9481 27.6649 16.7978 28.5147C17.6476 29.3644 18.125 30.517 18.125 31.7188V117.812H126.875C128.077 117.812 129.229 118.29 130.079 119.14C130.929 119.989 131.406 121.142 131.406 122.344C131.406 123.546 130.929 124.698 130.079 125.548C129.229 126.398 128.077 126.875 126.875 126.875Z" fill="#FFFBF5"/>
<path d="M34.9767 90.6249C34.0522 90.6263 33.1495 90.3448 32.3896 89.8183C31.6297 89.2918 31.049 88.5454 30.7255 87.6794C30.402 86.8134 30.3511 85.8692 30.5796 84.9734C30.8082 84.0776 31.3053 83.2732 32.0042 82.6681L60.465 57.9954C61.2971 57.2733 62.3638 56.8792 63.4656 56.8867C64.5673 56.8942 65.6285 57.3029 66.4508 58.0362L90.8244 79.7635L123.264 44.8865C124.083 44.0062 125.218 43.4873 126.419 43.444C127.621 43.4007 128.79 43.8364 129.671 44.6554C130.551 45.4744 131.07 46.6096 131.113 47.8111C131.157 49.0127 130.721 50.1823 129.902 51.0626L94.4403 89.184C93.6342 90.0528 92.5193 90.5704 91.3354 90.6255C90.1516 90.6806 88.9934 90.2687 88.1101 89.4785L63.3922 67.4567L37.9401 89.5238C37.1174 90.2362 36.065 90.6272 34.9767 90.6249Z" fill="#FFFBF5"/>
</svg>
