<svg width="134" height="134" viewBox="0 0 134 134" fill="none" xmlns="http://www.w3.org/2000/svg">
<path d="M100.938 33.0625C96.4375 28.4375 91.3125 24.9375 85.5625 22.5625C79.9375 20.1875 73.75 19 67 19C60.5 19 54.4375 20.125 48.8125 22.375C43.1875 24.625 38.1875 27.875 33.8125 32.125C29.5625 36.25 26.0625 41.125 23.3125 46.75C22.4375 48.875 20.9375 50 18.8125 50.125C16.6875 50.125 14.9375 49.3125 13.5625 47.6875C12.3125 46.0625 12.1875 44.1875 13.1875 42.0625C18.0625 31.8125 25.3125 23.5625 34.9375 17.3125C44.6875 10.9375 55.375 7.74999 67 7.74999C75.125 7.74999 82.8125 9.31249 90.0625 12.4375C97.3125 15.4375 103.625 19.6875 109 25.1875L130 46.9375L121.938 54.8125L100.938 33.0625ZM1.375 82C1.375 80.375 1.9375 79.0625 3.0625 78.0625C4.1875 76.9375 5.5625 76.375 7.1875 76.375H37C39.375 76.375 41 77.3125 41.875 79.1875C42.75 81.0625 42.75 82.9375 41.875 84.8125C41 86.6875 39.375 87.625 37 87.625H12.625V112C12.625 114.25 11.6875 115.875 9.8125 116.875C7.9375 117.75 6.0625 117.75 4.1875 116.875C2.3125 115.875 1.375 114.25 1.375 112V82ZM67 126.25C58.875 126.25 51.1875 124.75 43.9375 121.75C36.8125 118.625 30.5625 114.312 25.1875 108.812L4.1875 87.0625L12.25 79.1875L33.25 100.937C37.625 105.437 42.6875 108.937 48.4375 111.437C54.1875 113.812 60.375 115 67 115C73.5 115 79.5625 113.875 85.1875 111.625C90.9375 109.25 95.9375 106 100.188 101.875C104.563 97.75 108.063 92.8125 110.688 87.0625C111.688 84.9375 113.25 83.875 115.375 83.875C117.5 83.75 119.188 84.5 120.438 86.125C121.688 87.75 121.813 89.625 120.813 91.75C116.063 102.125 108.813 110.5 99.0625 116.875C89.3125 123.125 78.625 126.25 67 126.25ZM97 57.625C94.75 57.625 93.125 56.6875 92.125 54.8125C91.25 52.9375 91.25 51.0625 92.125 49.1875C93.125 47.3125 94.75 46.375 97 46.375H121.375V22C121.375 19.625 122.313 18 124.188 17.125C126.063 16.25 127.938 16.25 129.813 17.125C131.688 18 132.625 19.625 132.625 22V51.8125C132.625 53.4375 132.063 54.8125 130.938 55.9375C129.938 57.0625 128.625 57.625 127 57.625H97Z" fill="#FFFBF5"/>
<path d="M82.648 93.52C82.648 91.5573 83.1813 90.192 84.248 89.424C85.3147 88.6133 86.616 88.208 88.152 88.208C89.6453 88.208 90.9253 88.6133 91.992 89.424C93.0587 90.192 93.592 91.5573 93.592 93.52C93.592 95.3973 93.0587 96.7627 91.992 97.616C90.9253 98.4267 89.6453 98.832 88.152 98.832C86.616 98.832 85.3147 98.4267 84.248 97.616C83.1813 96.7627 82.648 95.3973 82.648 93.52Z" fill="#FFFBF5"/>
<path d="M79.9333 85.5111C79.5333 86.4 78.7778 86.8444 77.6667 86.8444H56.3333C55.2222 86.8444 54.4444 86.4 54 85.5111C53.6 84.6222 53.6 83.7333 54 82.8444C54.4444 81.9556 55.2222 81.5111 56.3333 81.5111H64.3333V50.3778L57.8 54.4444C56.8667 55.0222 55.9778 55.0667 55.1333 54.5778C54.2889 54.0444 53.8 53.2889 53.6667 52.3111C53.5333 51.3333 53.9333 50.5333 54.8667 49.9111L63.2667 44.7111C63.8444 44.3556 64.4222 44.1778 65 44.1778H65.6C66.8 44.1778 67.7778 44.5555 68.5333 45.3111C69.2889 46.0667 69.6667 47.0444 69.6667 48.2444V81.5111H77.6667C78.7778 81.5111 79.5333 81.9556 79.9333 82.8444C80.3778 83.7333 80.3778 84.6222 79.9333 85.5111Z" fill="#FFFBF5"/>
</svg>
