<svg width="169" height="169" viewBox="0 0 169 169" fill="none" xmlns="http://www.w3.org/2000/svg">
<path d="M35.4231 64.4946C35.2822 62.9666 35.2083 61.4209 35.2083 59.8542C35.2083 32.6311 57.2769 10.5625 84.5 10.5625C111.723 10.5625 133.792 32.6311 133.792 59.8542C133.792 61.4209 133.721 62.9666 133.577 64.4946C150.347 72.3637 161.958 89.3975 161.958 109.146C161.958 136.369 139.89 158.438 112.667 158.438C102.196 158.438 92.4852 155.17 84.5 149.6C76.2408 155.367 66.4067 158.453 56.3333 158.438C29.1102 158.438 7.04163 136.369 7.04163 109.146C7.04163 89.3975 18.6533 72.3637 35.4231 64.4946ZM38.8805 78.5604C33.4852 81.6381 29.0005 86.089 25.882 91.4609C22.7635 96.8328 21.1222 102.934 21.125 109.146C21.125 128.591 36.8877 144.354 56.3333 144.354C62.7483 144.354 68.7618 142.64 73.9375 139.643C67.0793 130.959 63.3571 120.212 63.375 109.146C63.375 107.579 63.4454 106.033 63.5897 104.505C52.4003 99.2473 43.5852 89.99 38.8805 78.5568V78.5604ZM77.4618 108.646L77.4583 109.146C77.4583 128.591 93.2211 144.354 112.667 144.354C132.112 144.354 147.875 128.591 147.875 109.146C147.875 96.0483 140.728 84.6268 130.119 78.5604C122.75 96.506 105.097 109.146 84.5 109.146C82.145 109.147 79.7929 108.98 77.4618 108.646ZM84.5 95.0625C103.946 95.0625 119.708 79.2997 119.708 59.8542C119.708 40.4086 103.946 24.6458 84.5 24.6458C65.0544 24.6458 49.2916 40.4086 49.2916 59.8542C49.2916 79.2997 65.0544 95.0625 84.5 95.0625Z" fill="#FFFBF5"/>
</svg>
