<svg width="145" height="145" viewBox="0 0 145 145" fill="none" xmlns="http://www.w3.org/2000/svg">
<path d="M54.375 78.5417C55.9618 78.5417 57.5331 78.8542 58.9991 79.4615C60.4651 80.0687 61.7972 80.9588 62.9192 82.0808C64.0412 83.2028 64.9313 84.5349 65.5385 86.0009C66.1458 87.4669 66.4583 89.0382 66.4583 90.625V123.854C66.4583 125.441 66.1458 127.012 65.5385 128.478C64.9313 129.944 64.0412 131.276 62.9192 132.398C61.7972 133.52 60.4651 134.41 58.9991 135.018C57.5331 135.625 55.9618 135.938 54.375 135.938H21.1458C19.559 135.938 17.9878 135.625 16.5217 135.018C15.0557 134.41 13.7237 133.52 12.6016 132.398C11.4796 131.276 10.5895 129.944 9.98229 128.478C9.37504 127.012 9.0625 125.441 9.0625 123.854V90.625C9.0625 89.0382 9.37504 87.4669 9.98229 86.0009C10.5895 84.5349 11.4796 83.2028 12.6016 82.0808C13.7237 80.9588 15.0557 80.0687 16.5217 79.4615C17.9878 78.8542 19.559 78.5417 21.1458 78.5417H54.375ZM86.3958 117.812C87.0604 117.812 87.6042 118.356 87.6042 119.021V126.875H113.583C114.248 126.875 114.792 127.419 114.792 128.083V134.729C114.792 134.888 114.76 135.045 114.7 135.192C114.639 135.338 114.55 135.471 114.438 135.584C114.326 135.696 114.192 135.785 114.046 135.846C113.899 135.906 113.742 135.938 113.583 135.938H79.75C79.4295 135.938 79.1222 135.81 78.8956 135.584C78.669 135.357 78.5417 135.05 78.5417 134.729V119.021C78.5417 118.356 79.0854 117.812 79.75 117.812H86.3958ZM134.729 117.812C135.394 117.812 135.938 118.356 135.938 119.021V134.729C135.938 135.05 135.81 135.357 135.584 135.584C135.357 135.81 135.05 135.938 134.729 135.938H128.083C127.763 135.938 127.456 135.81 127.229 135.584C127.002 135.357 126.875 135.05 126.875 134.729V119.021C126.875 118.356 127.419 117.812 128.083 117.812H134.729ZM54.375 87.6042H21.1458C20.4059 87.6043 19.6918 87.8759 19.1389 88.3676C18.586 88.8592 18.2327 89.5367 18.1461 90.2716L18.125 90.625V123.854C18.1251 124.594 18.3967 125.308 18.8884 125.861C19.3801 126.414 20.0576 126.767 20.7924 126.854L21.1458 126.875H54.375C55.1149 126.875 55.829 126.603 56.382 126.112C56.9349 125.62 57.2881 124.942 57.3747 124.208L57.3958 123.854V90.625C57.3957 89.8851 57.1241 89.171 56.6324 88.618C56.1408 88.0651 55.4633 87.7119 54.7284 87.6253L54.375 87.6042ZM113.583 108.75C114.248 108.75 114.792 109.294 114.792 109.958V116.604C114.792 116.763 114.76 116.92 114.7 117.067C114.639 117.213 114.55 117.346 114.438 117.459C114.326 117.571 114.192 117.66 114.046 117.721C113.899 117.781 113.742 117.813 113.583 117.812H106.938C106.617 117.813 106.31 117.685 106.083 117.459C105.856 117.232 105.729 116.925 105.729 116.604V109.958C105.729 109.294 106.273 108.75 106.938 108.75H113.583ZM42.2917 99.6875C43.0928 99.6875 43.8612 100.006 44.4277 100.572C44.9942 101.139 45.3125 101.907 45.3125 102.708V111.771C45.3125 112.168 45.2344 112.56 45.0826 112.927C44.9307 113.293 44.7082 113.626 44.4277 113.907C44.1472 114.187 43.8142 114.41 43.4477 114.562C43.0812 114.714 42.6884 114.792 42.2917 114.792H33.2292C32.8325 114.792 32.4396 114.714 32.0731 114.562C31.7066 114.41 31.3736 114.187 31.0931 113.907C30.8126 113.626 30.5901 113.293 30.4383 112.927C30.2865 112.56 30.2083 112.168 30.2083 111.771V102.708C30.2083 102.312 30.2865 101.919 30.4383 101.552C30.5901 101.186 30.8126 100.853 31.0931 100.572C31.3736 100.292 31.7066 100.069 32.0731 99.9174C32.4396 99.7656 32.8325 99.6875 33.2292 99.6875H42.2917ZM113.583 78.5417C114.248 78.5417 114.792 79.0854 114.792 79.75V86.3958C114.792 86.5545 114.76 86.7116 114.7 86.8582C114.639 87.0048 114.55 87.138 114.438 87.2503C114.326 87.3625 114.192 87.4515 114.046 87.5122C113.899 87.5729 113.742 87.6042 113.583 87.6042H87.6042V96.6667H104.521C105.185 96.6667 105.729 97.2104 105.729 97.875V104.521C105.729 104.68 105.698 104.837 105.637 104.983C105.576 105.13 105.487 105.263 105.375 105.375C105.263 105.487 105.13 105.576 104.983 105.637C104.837 105.698 104.68 105.729 104.521 105.729H79.75C79.5913 105.729 79.4342 105.698 79.2876 105.637C79.141 105.576 79.0078 105.487 78.8956 105.375C78.7834 105.263 78.6944 105.13 78.6336 104.983C78.5729 104.837 78.5417 104.68 78.5417 104.521V79.75C78.5417 79.0854 79.0854 78.5417 79.75 78.5417H113.583ZM134.729 96.6667C135.394 96.6667 135.938 97.2104 135.938 97.875V104.521C135.938 104.68 135.906 104.837 135.846 104.983C135.785 105.13 135.696 105.263 135.584 105.375C135.471 105.487 135.338 105.576 135.192 105.637C135.045 105.698 134.888 105.729 134.729 105.729H116C115.841 105.729 115.684 105.698 115.538 105.637C115.391 105.576 115.258 105.487 115.146 105.375C115.033 105.263 114.944 105.13 114.884 104.983C114.823 104.837 114.792 104.68 114.792 104.521V97.875C114.792 97.2104 115.335 96.6667 116 96.6667H134.729ZM134.729 78.5417C135.394 78.5417 135.938 79.0854 135.938 79.75V86.3958C135.938 86.5545 135.906 86.7116 135.846 86.8582C135.785 87.0048 135.696 87.138 135.584 87.2503C135.471 87.3625 135.338 87.4515 135.192 87.5122C135.045 87.5729 134.888 87.6042 134.729 87.6042H128.083C127.925 87.6042 127.768 87.5729 127.621 87.5122C127.474 87.4515 127.341 87.3625 127.229 87.2503C127.117 87.138 127.028 87.0048 126.967 86.8582C126.906 86.7116 126.875 86.5545 126.875 86.3958V79.75C126.875 79.0854 127.419 78.5417 128.083 78.5417H134.729ZM54.375 9.0625C57.5797 9.0625 60.6531 10.3356 62.9192 12.6016C65.1853 14.8677 66.4583 17.9411 66.4583 21.1458V54.375C66.4583 57.5797 65.1853 60.6531 62.9192 62.9192C60.6531 65.1853 57.5797 66.4583 54.375 66.4583H21.1458C17.9411 66.4583 14.8677 65.1853 12.6016 62.9192C10.3356 60.6531 9.0625 57.5797 9.0625 54.375V21.1458C9.0625 17.9411 10.3356 14.8677 12.6016 12.6016C14.8677 10.3356 17.9411 9.0625 21.1458 9.0625H54.375ZM123.854 9.0625C125.441 9.0625 127.012 9.37504 128.478 9.98229C129.944 10.5895 131.276 11.4796 132.398 12.6016C133.52 13.7237 134.41 15.0557 135.018 16.5217C135.625 17.9878 135.938 19.559 135.938 21.1458V54.375C135.938 55.9618 135.625 57.5331 135.018 58.9991C134.41 60.4651 133.52 61.7972 132.398 62.9192C131.276 64.0412 129.944 64.9313 128.478 65.5385C127.012 66.1458 125.441 66.4583 123.854 66.4583H90.625C89.0382 66.4583 87.4669 66.1458 86.0009 65.5385C84.5349 64.9313 83.2028 64.0412 82.0808 62.9192C80.9588 61.7972 80.0687 60.4651 79.4615 58.9991C78.8542 57.5331 78.5417 55.9618 78.5417 54.375V21.1458C78.5417 19.559 78.8542 17.9878 79.4615 16.5217C80.0687 15.0557 80.9588 13.7237 82.0808 12.6016C83.2028 11.4796 84.5349 10.5895 86.0009 9.98229C87.4669 9.37504 89.0382 9.0625 90.625 9.0625H123.854ZM54.375 18.125H21.1458C20.4059 18.1251 19.6918 18.3967 19.1389 18.8884C18.586 19.3801 18.2327 20.0576 18.1461 20.7924L18.125 21.1458V54.375C18.1251 55.1149 18.3967 55.829 18.8884 56.382C19.3801 56.9349 20.0576 57.2881 20.7924 57.3747L21.1458 57.3958H54.375C55.1149 57.3957 55.829 57.1241 56.382 56.6324C56.9349 56.1408 57.2881 55.4633 57.3747 54.7284L57.3958 54.375V21.1458C57.3957 20.4059 57.1241 19.6918 56.6324 19.1389C56.1408 18.586 55.4633 18.2327 54.7284 18.1461L54.375 18.125ZM123.854 18.125H90.625C89.8851 18.1251 89.171 18.3967 88.618 18.8884C88.0651 19.3801 87.7119 20.0576 87.6253 20.7924L87.6042 21.1458V54.375C87.6043 55.1149 87.8759 55.829 88.3676 56.382C88.8592 56.9349 89.5367 57.2881 90.2716 57.3747L90.625 57.3958H123.854C124.594 57.3957 125.308 57.1241 125.861 56.6324C126.414 56.1408 126.767 55.4633 126.854 54.7284L126.875 54.375V21.1458C126.875 20.4059 126.603 19.6918 126.112 19.1389C125.62 18.586 124.942 18.2327 124.208 18.1461L123.854 18.125ZM42.2917 30.2083C42.6884 30.2083 43.0812 30.2865 43.4477 30.4383C43.8142 30.5901 44.1472 30.8126 44.4277 31.0931C44.7082 31.3736 44.9307 31.7066 45.0826 32.0731C45.2344 32.4396 45.3125 32.8325 45.3125 33.2292V42.2917C45.3125 43.0928 44.9942 43.8612 44.4277 44.4277C43.8612 44.9942 43.0928 45.3125 42.2917 45.3125H33.2292C32.8325 45.3125 32.4396 45.2344 32.0731 45.0826C31.7066 44.9307 31.3736 44.7082 31.0931 44.4277C30.8126 44.1472 30.5901 43.8142 30.4383 43.4477C30.2865 43.0812 30.2083 42.6884 30.2083 42.2917V33.2292C30.2083 32.8325 30.2865 32.4396 30.4383 32.0731C30.5901 31.7066 30.8126 31.3736 31.0931 31.0931C31.3736 30.8126 31.7066 30.5901 32.0731 30.4383C32.4396 30.2865 32.8325 30.2083 33.2292 30.2083H42.2917ZM111.771 30.2083C112.168 30.2083 112.56 30.2865 112.927 30.4383C113.293 30.5901 113.626 30.8126 113.907 31.0931C114.187 31.3736 114.41 31.7066 114.562 32.0731C114.714 32.4396 114.792 32.8325 114.792 33.2292V42.2917C114.792 42.6884 114.714 43.0812 114.562 43.4477C114.41 43.8142 114.187 44.1472 113.907 44.4277C113.626 44.7082 113.293 44.9307 112.927 45.0826C112.56 45.2344 112.168 45.3125 111.771 45.3125H102.708C101.907 45.3125 101.139 44.9942 100.572 44.4277C100.006 43.8612 99.6875 43.0928 99.6875 42.2917V33.2292C99.6875 32.8325 99.7656 32.4396 99.9174 32.0731C100.069 31.7066 100.292 31.3736 100.572 31.0931C100.853 30.8126 101.186 30.5901 101.552 30.4383C101.919 30.2865 102.312 30.2083 102.708 30.2083H111.771Z" fill="#000000"/>
</svg>
