<svg width="154" height="154" viewBox="0 0 154 154" fill="none" xmlns="http://www.w3.org/2000/svg">
<path d="M67.75 152.156C64.6667 152.156 61.8403 151.193 59.2708 149.266C56.8299 147.21 55.2882 144.641 54.6458 141.557L52.526 131.922C52.3976 131.28 52.3976 130.958 52.526 130.958C52.6545 130.958 52.6545 131.023 52.526 131.151C52.3976 131.151 52.0764 131.087 51.5625 130.958C49.1215 129.802 46.8733 128.517 44.8177 127.104L43.0833 126.141C42.5694 125.755 42.3125 125.562 42.3125 125.562C42.441 125.434 42.5052 125.434 42.5052 125.562C42.6337 125.562 42.3767 125.627 41.7344 125.755L32.2917 128.646C29.3368 129.545 26.3819 129.417 23.4271 128.26C20.4722 127.104 18.224 125.177 16.6823 122.479L7.43229 106.677C5.76215 103.851 5.11979 100.896 5.50521 97.8125C6.0191 94.6007 7.49653 91.967 9.9375 89.9115L17.2604 83.1667C17.6458 82.7812 17.8385 82.6528 17.8385 82.7812C17.967 82.7812 17.967 82.7812 17.8385 82.7812C17.8385 82.7812 17.7743 82.5243 17.6458 82.0104C17.3889 80.9826 17.2604 79.3125 17.2604 77C17.2604 74.559 17.3889 72.8246 17.6458 71.7969C17.7743 71.4115 17.8385 71.2188 17.8385 71.2188C17.967 71.0903 17.967 71.0903 17.8385 71.2188C17.8385 71.2188 17.6458 71.026 17.2604 70.6406L9.9375 64.0885C7.49653 61.9045 6.0191 59.2708 5.50521 56.1875C5.11979 53.1042 5.76215 50.1493 7.43229 47.3229L16.6823 31.5208C18.224 28.6944 20.4722 26.7674 23.4271 25.7396C26.3819 24.5833 29.3368 24.4549 32.2917 25.3542L41.7344 28.2448C42.3767 28.3733 42.6337 28.5017 42.5052 28.6302C42.5052 28.6302 42.441 28.566 42.3125 28.4375C42.3125 28.309 42.5694 28.1163 43.0833 27.8594L44.8177 26.7031C46.8733 25.2899 49.1215 24.0694 51.5625 23.0417C52.0764 22.7847 52.3976 22.7205 52.526 22.8489C52.6545 22.9774 52.6545 23.0417 52.526 23.0417C52.3976 22.9132 52.3976 22.592 52.526 22.0781L54.6458 12.25C55.2882 9.29514 56.8299 6.85416 59.2708 4.92707C61.8403 2.87152 64.6667 1.84374 67.75 1.84374H86.25C89.4618 1.84374 92.2882 2.87152 94.7292 4.92707C97.2986 6.85416 98.9045 9.29514 99.5469 12.25L101.474 21.5C101.602 22.1424 101.602 22.5278 101.474 22.6562C101.602 22.6562 101.924 22.7847 102.438 23.0417C105.135 24.0694 107.962 25.6111 110.917 27.6667C111.302 28.0521 111.495 28.309 111.495 28.4375C111.623 28.309 112.009 28.1806 112.651 28.0521L121.708 25.3542C124.792 24.4549 127.811 24.5833 130.766 25.7396C133.72 26.7674 135.969 28.6944 137.51 31.5208L146.76 47.3229C148.302 50.1493 148.816 53.1042 148.302 56.1875C147.917 59.2708 146.568 61.9045 144.255 64.0885L137.125 70.4479C136.74 70.8333 136.483 71.026 136.354 71.026C136.226 71.026 136.161 71.026 136.161 71.026C136.29 71.026 136.354 71.283 136.354 71.7969C136.611 72.8246 136.74 74.559 136.74 77C136.74 79.3125 136.611 80.9826 136.354 82.0104C136.354 82.5243 136.29 82.8455 136.161 82.974C136.161 82.974 136.226 82.974 136.354 82.974C136.483 82.8455 136.74 82.974 137.125 83.3594L144.255 89.9115C146.568 91.967 147.917 94.6007 148.302 97.8125C148.816 100.896 148.302 103.851 146.76 106.677L137.51 122.479C135.969 125.177 133.72 127.104 130.766 128.26C127.811 129.417 124.792 129.545 121.708 128.646L112.651 125.755C112.009 125.627 111.623 125.562 111.495 125.562C111.495 125.434 111.495 125.434 111.495 125.562C111.495 125.691 111.302 125.884 110.917 126.141C107.962 128.325 105.135 129.931 102.438 130.958C101.924 131.087 101.602 131.151 101.474 131.151C101.474 131.151 101.474 131.215 101.474 131.344C101.602 131.472 101.602 131.793 101.474 132.307L99.5469 141.557C98.9045 144.641 97.2986 147.21 94.7292 149.266C92.2882 151.193 89.4618 152.156 86.25 152.156H67.75ZM89.9115 140.594C91.0677 140.594 91.3247 141.043 90.6823 141.943C90.0399 142.714 89.2691 143.292 88.3698 143.677C87.4705 144.062 87.1493 143.677 87.4063 142.521L90.2969 129.995C90.6823 127.811 91.5816 125.884 92.9948 124.214C94.408 122.543 96.0781 121.259 98.0052 120.359C99.033 119.845 100.061 119.332 101.089 118.818C102.116 118.175 103.144 117.469 104.172 116.698C105.842 115.542 107.769 114.771 109.953 114.385C112.137 114 114.257 114.128 116.313 114.771L128.646 118.818C129.802 119.075 129.931 119.524 129.031 120.167C128.26 120.809 127.361 121.194 126.333 121.323C125.434 121.323 125.241 120.809 125.755 119.781L138.474 97.6198C138.988 96.7205 139.438 96.7205 139.823 97.6198C140.337 98.5191 140.53 99.4826 140.401 100.51C140.273 101.41 139.759 101.474 138.859 100.703L129.609 92.0312C127.939 90.4896 126.719 88.7552 125.948 86.8281C125.177 84.7726 124.856 82.6528 124.984 80.4687C125.113 79.6979 125.177 78.5417 125.177 77C125.177 75.3299 125.113 74.1094 124.984 73.3385C124.856 71.1545 125.177 69.099 125.948 67.1719C126.719 65.1163 127.939 63.3177 129.609 61.776L138.859 53.1042C139.759 52.3333 140.273 52.4618 140.401 53.4896C140.53 54.5174 140.337 55.4809 139.823 56.3802C139.438 57.2795 138.988 57.2153 138.474 56.1875L125.755 34.026C125.241 33.1267 125.434 32.7413 126.333 32.8698C127.361 32.8698 128.26 33.191 129.031 33.8333C129.931 34.3472 129.802 34.7969 128.646 35.1823L116.313 39.0365C114.257 39.6788 112.137 39.8715 109.953 39.6146C107.769 39.2292 105.842 38.3941 104.172 37.1094C103.144 36.467 102.116 35.8889 101.089 35.375C100.061 34.7326 99.033 34.1545 98.0052 33.6406C96.0781 32.7413 94.408 31.4566 92.9948 29.7865C91.5816 28.1163 90.6823 26.1892 90.2969 24.0052L87.4063 11.2864C87.1493 10.2587 87.4705 9.93749 88.3698 10.3229C89.2691 10.7083 90.0399 11.3507 90.6823 12.25C91.3247 13.0208 91.0677 13.4062 89.9115 13.4062H64.2813C63.125 13.4062 62.8038 13.0208 63.3177 12.25C63.9601 11.3507 64.7309 10.7083 65.6302 10.3229C66.5295 9.93749 66.9149 10.2587 66.7865 11.2864L63.8958 24.0052C63.3819 26.1892 62.4184 28.1163 61.0052 29.7865C59.7205 31.4566 58.1146 32.7413 56.1875 33.6406C55.1597 34.1545 54.1319 34.7326 53.1042 35.375C52.0764 35.8889 51.1128 36.4028 50.2135 36.9167L50.0208 37.1094C48.2222 38.3941 46.2309 39.2292 44.0469 39.6146C41.9913 39.8715 39.8715 39.6788 37.6875 39.0365L25.3542 35.1823C24.3264 34.7969 24.1979 34.3472 24.9688 33.8333C25.7396 33.191 26.5747 32.8698 27.474 32.8698C28.5017 32.7413 28.7587 33.1267 28.2448 34.026L15.7188 56.1875C15.2049 57.2153 14.691 57.2795 14.1771 56.3802C13.7917 55.4809 13.6632 54.5174 13.7917 53.4896C13.9201 52.4618 14.3698 52.3333 15.1406 53.1042L24.5833 61.776C26.125 63.3177 27.2813 65.1163 28.0521 67.1719C28.9514 69.099 29.2726 71.1545 29.0156 73.3385C28.8872 74.1094 28.8229 75.3299 28.8229 77C28.8229 78.5417 28.8872 79.6979 29.0156 80.4687C29.2726 82.6528 28.9514 84.7726 28.0521 86.8281C27.2813 88.7552 26.125 90.4896 24.5833 92.0312L15.1406 100.703C14.3698 101.474 13.9201 101.41 13.7917 100.51C13.6632 99.4826 13.7917 98.5191 14.1771 97.6198C14.691 96.7205 15.2049 96.7205 15.7188 97.6198L28.2448 119.781C28.7587 120.809 28.5017 121.323 27.474 121.323C26.5747 121.194 25.7396 120.809 24.9688 120.167C24.1979 119.524 24.3264 119.075 25.3542 118.818L37.6875 114.771C39.8715 114.128 41.9913 114 44.0469 114.385C46.2309 114.771 48.2222 115.542 50.0208 116.698L50.2135 116.891C51.1128 117.533 52.0764 118.175 53.1042 118.818C54.1319 119.332 55.1597 119.845 56.1875 120.359C58.1146 121.259 59.7205 122.543 61.0052 124.214C62.4184 125.884 63.3819 127.811 63.8958 129.995L66.7865 142.521C66.9149 143.677 66.5295 144.062 65.6302 143.677C64.7309 143.292 63.9601 142.714 63.3177 141.943C62.8038 141.043 63.125 140.594 64.2813 140.594H89.9115ZM77 105.906C71.8611 105.906 67.0434 104.622 62.5469 102.052C58.1788 99.3542 54.6458 95.8212 51.9479 91.4531C49.3785 86.9566 48.0938 82.1389 48.0938 77C48.0938 71.7326 49.3785 66.9149 51.9479 62.5469C54.6458 58.0503 58.1788 54.5174 62.5469 51.9479C67.0434 49.3785 71.8611 48.0937 77 48.0937C82.2674 48.0937 87.0851 49.3785 91.4531 51.9479C95.9497 54.5174 99.4826 58.0503 102.052 62.5469C104.622 66.9149 105.906 71.7326 105.906 77C105.906 82.1389 104.622 86.9566 102.052 91.4531C99.4826 95.8212 95.9497 99.3542 91.4531 102.052C87.0851 104.622 82.2674 105.906 77 105.906ZM77 94.3437C81.882 94.3437 85.9931 92.6736 89.3333 89.3333C92.6736 85.8646 94.3438 81.7535 94.3438 77C94.3438 72.118 92.6736 68.0069 89.3333 64.6667C85.9931 61.3264 81.882 59.6562 77 59.6562C72.2465 59.6562 68.1354 61.3264 64.6667 64.6667C61.3264 68.0069 59.6563 72.118 59.6563 77C59.6563 81.7535 61.3264 85.8646 64.6667 89.3333C68.1354 92.6736 72.2465 94.3437 77 94.3437Z" fill="#FFFBF5"/>
</svg>
