<svg width="137" height="120" viewBox="0 0 137 120" fill="none" xmlns="http://www.w3.org/2000/svg">
<mask id="path-1-inside-1_67_159" fill="white">
<rect y="75.3334" width="137" height="43.9444" rx="3"/>
</mask>
<rect y="75.3334" width="137" height="43.9444" rx="3" stroke="#FFFBF5" stroke-width="10" mask="url(#path-1-inside-1_67_159)"/>
<mask id="path-2-inside-2_67_159" fill="white">
<path d="M114.418 7.36951C115.249 7.36951 115.923 8.46934 115.923 9.82604V76.1521H109.901V9.82603C109.901 8.46934 110.575 7.36951 111.407 7.36951L114.418 7.36951Z"/>
<path d="M25.5934 7.36951C26.4249 7.36951 27.0989 8.46933 27.0989 9.82603L27.0989 76.1521H21.0769L21.0769 9.82603C21.0769 8.46933 21.7509 7.36951 22.5824 7.36951L25.5934 7.36951Z"/>
</mask>
<path d="M114.418 7.36951C115.249 7.36951 115.923 8.46934 115.923 9.82604V76.1521H109.901V9.82603C109.901 8.46934 110.575 7.36951 111.407 7.36951L114.418 7.36951Z" fill="#FFFBF5"/>
<path d="M25.5934 7.36951C26.4249 7.36951 27.0989 8.46933 27.0989 9.82603L27.0989 76.1521H21.0769L21.0769 9.82603C21.0769 8.46933 21.7509 7.36951 22.5824 7.36951L25.5934 7.36951Z" fill="#FFFBF5"/>
<path d="M115.923 76.1521V77.1521H116.923V76.1521H115.923ZM109.901 76.1521H108.901V77.1521H109.901V76.1521ZM109.901 9.82603L108.901 9.82603V9.82603H109.901ZM111.407 7.36951V6.36951V7.36951ZM115.923 9.82604H114.923H115.923ZM114.418 7.36951V8.36951V7.36951ZM27.0989 76.1521V77.1521H28.0989V76.1521H27.0989ZM21.0769 76.1521H20.0769V77.1521H21.0769V76.1521ZM21.0769 9.82603L22.0769 9.82603L21.0769 9.82603ZM22.5824 7.36951L22.5824 8.36951L22.5824 7.36951ZM27.0989 9.82603H28.0989H27.0989ZM25.5934 7.36951V6.36951V7.36951ZM114.923 9.82604V76.1521H116.923V9.82604H114.923ZM115.923 75.1521H109.901V77.1521H115.923V75.1521ZM110.901 76.1521V9.82603H108.901V76.1521H110.901ZM111.407 8.36951L114.418 8.36951V6.36951L111.407 6.36951V8.36951ZM110.901 9.82603C110.901 9.30154 111.033 8.87465 111.195 8.61154C111.366 8.33168 111.47 8.36951 111.407 8.36951V6.36951C110.512 6.36951 109.863 6.95726 109.489 7.56648C109.106 8.19246 108.901 8.99383 108.901 9.82603L110.901 9.82603ZM116.923 9.82604C116.923 8.99383 116.718 8.19246 116.335 7.56648C115.961 6.95726 115.312 6.36951 114.418 6.36951V8.36951C114.354 8.36951 114.458 8.33168 114.629 8.61155C114.791 8.87465 114.923 9.30154 114.923 9.82604H116.923ZM26.0989 9.82603L26.0989 76.1521H28.0989L28.0989 9.82603H26.0989ZM27.0989 75.1521H21.0769V77.1521H27.0989V75.1521ZM22.0769 76.1521L22.0769 9.82603L20.0769 9.82603L20.0769 76.1521H22.0769ZM22.5824 8.36951L25.5934 8.36951V6.36951L22.5824 6.36951L22.5824 8.36951ZM22.0769 9.82603C22.0769 9.30153 22.2092 8.87465 22.3705 8.61154C22.542 8.33168 22.6455 8.36951 22.5824 8.36951L22.5824 6.36951C21.6879 6.36951 21.0386 6.95725 20.6652 7.56647C20.2816 8.19245 20.0769 8.99383 20.0769 9.82603L22.0769 9.82603ZM28.0989 9.82603C28.0989 8.99383 27.8942 8.19245 27.5106 7.56647C27.1372 6.95725 26.4879 6.36951 25.5934 6.36951V8.36951C25.5303 8.36951 25.6338 8.33168 25.8053 8.61154C25.9666 8.87465 26.0989 9.30153 26.0989 9.82603H28.0989Z" fill="#FFFBF5" mask="url(#path-2-inside-2_67_159)"/>
<mask id="path-4-inside-3_67_159" fill="white">
<path fill-rule="evenodd" clip-rule="evenodd" d="M17.701 102.721C20.6282 102.721 23.0231 100.329 23.0231 97.351C23.0231 94.3733 20.6282 91.9814 17.701 91.9814C14.7737 91.9814 12.3788 94.3733 12.3788 97.351C12.3788 100.329 14.7737 102.721 17.701 102.721ZM39.6667 102.721C42.5939 102.721 44.9889 100.329 44.9889 97.351C44.9889 94.3733 42.5939 91.9814 39.6667 91.9814C36.7395 91.9814 34.3445 94.3733 34.3445 97.351C34.3445 100.329 36.7395 102.721 39.6667 102.721ZM61.6334 102.721C64.5606 102.721 66.9556 100.329 66.9556 97.351C66.9556 94.3733 64.5606 91.9814 61.6334 91.9814C58.7062 91.9814 56.3113 94.3733 56.3113 97.351C56.3113 100.329 58.7062 102.721 61.6334 102.721ZM17.701 104.721C21.7449 104.721 25.0231 101.421 25.0231 97.351C25.0231 93.2809 21.7449 89.9814 17.701 89.9814C13.657 89.9814 10.3788 93.2809 10.3788 97.351C10.3788 101.421 13.657 104.721 17.701 104.721ZM39.6667 104.721C43.7106 104.721 46.9889 101.421 46.9889 97.351C46.9889 93.2809 43.7106 89.9814 39.6667 89.9814C35.6228 89.9814 32.3445 93.2809 32.3445 97.351C32.3445 101.421 35.6228 104.721 39.6667 104.721ZM68.9556 97.351C68.9556 101.421 65.6774 104.721 61.6334 104.721C57.5895 104.721 54.3113 101.421 54.3113 97.351C54.3113 93.2809 57.5895 89.9814 61.6334 89.9814C65.6774 89.9814 68.9556 93.2809 68.9556 97.351Z"/>
</mask>
<path fill-rule="evenodd" clip-rule="evenodd" d="M17.701 102.721C20.6282 102.721 23.0231 100.329 23.0231 97.351C23.0231 94.3733 20.6282 91.9814 17.701 91.9814C14.7737 91.9814 12.3788 94.3733 12.3788 97.351C12.3788 100.329 14.7737 102.721 17.701 102.721ZM39.6667 102.721C42.5939 102.721 44.9889 100.329 44.9889 97.351C44.9889 94.3733 42.5939 91.9814 39.6667 91.9814C36.7395 91.9814 34.3445 94.3733 34.3445 97.351C34.3445 100.329 36.7395 102.721 39.6667 102.721ZM61.6334 102.721C64.5606 102.721 66.9556 100.329 66.9556 97.351C66.9556 94.3733 64.5606 91.9814 61.6334 91.9814C58.7062 91.9814 56.3113 94.3733 56.3113 97.351C56.3113 100.329 58.7062 102.721 61.6334 102.721ZM17.701 104.721C21.7449 104.721 25.0231 101.421 25.0231 97.351C25.0231 93.2809 21.7449 89.9814 17.701 89.9814C13.657 89.9814 10.3788 93.2809 10.3788 97.351C10.3788 101.421 13.657 104.721 17.701 104.721ZM39.6667 104.721C43.7106 104.721 46.9889 101.421 46.9889 97.351C46.9889 93.2809 43.7106 89.9814 39.6667 89.9814C35.6228 89.9814 32.3445 93.2809 32.3445 97.351C32.3445 101.421 35.6228 104.721 39.6667 104.721ZM68.9556 97.351C68.9556 101.421 65.6774 104.721 61.6334 104.721C57.5895 104.721 54.3113 101.421 54.3113 97.351C54.3113 93.2809 57.5895 89.9814 61.6334 89.9814C65.6774 89.9814 68.9556 93.2809 68.9556 97.351Z" fill="white"/>
<path d="M21.0231 97.351C21.0231 99.235 19.5128 100.721 17.701 100.721V104.721C21.7435 104.721 25.0231 101.422 25.0231 97.351H21.0231ZM17.701 93.9814C19.5128 93.9814 21.0231 95.4671 21.0231 97.351H25.0231C25.0231 93.2795 21.7435 89.9814 17.701 89.9814V93.9814ZM14.3788 97.351C14.3788 95.4671 15.8891 93.9814 17.701 93.9814V89.9814C13.6584 89.9814 10.3788 93.2795 10.3788 97.351H14.3788ZM17.701 100.721C15.8891 100.721 14.3788 99.235 14.3788 97.351H10.3788C10.3788 101.422 13.6584 104.721 17.701 104.721V100.721ZM42.9889 97.351C42.9889 99.235 41.4786 100.721 39.6667 100.721V104.721C43.7092 104.721 46.9889 101.422 46.9889 97.351H42.9889ZM39.6667 93.9814C41.4786 93.9814 42.9889 95.4671 42.9889 97.351H46.9889C46.9889 93.2795 43.7092 89.9814 39.6667 89.9814V93.9814ZM36.3445 97.351C36.3445 95.4671 37.8548 93.9814 39.6667 93.9814V89.9814C35.6241 89.9814 32.3445 93.2795 32.3445 97.351H36.3445ZM39.6667 100.721C37.8548 100.721 36.3445 99.235 36.3445 97.351H32.3445C32.3445 101.422 35.6241 104.721 39.6667 104.721V100.721ZM64.9556 97.351C64.9556 99.235 63.4453 100.721 61.6334 100.721V104.721C65.676 104.721 68.9556 101.422 68.9556 97.351H64.9556ZM61.6334 93.9814C63.4453 93.9814 64.9556 95.4671 64.9556 97.351H68.9556C68.9556 93.2795 65.676 89.9814 61.6334 89.9814V93.9814ZM58.3113 97.351C58.3113 95.4671 59.8216 93.9814 61.6334 93.9814V89.9814C57.5909 89.9814 54.3113 93.2795 54.3113 97.351H58.3113ZM61.6334 100.721C59.8216 100.721 58.3113 99.235 58.3113 97.351H54.3113C54.3113 101.422 57.5909 104.721 61.6334 104.721V100.721ZM23.0231 97.351C23.0231 100.329 20.6282 102.721 17.701 102.721V106.721C22.8616 106.721 27.0231 102.513 27.0231 97.351H23.0231ZM17.701 91.9814C20.6282 91.9814 23.0231 94.3733 23.0231 97.351H27.0231C27.0231 92.1885 22.8616 87.9814 17.701 87.9814V91.9814ZM12.3788 97.351C12.3788 94.3733 14.7737 91.9814 17.701 91.9814V87.9814C12.5403 87.9814 8.37878 92.1885 8.37878 97.351H12.3788ZM17.701 102.721C14.7737 102.721 12.3788 100.329 12.3788 97.351H8.37878C8.37878 102.513 12.5403 106.721 17.701 106.721V102.721ZM44.9889 97.351C44.9889 100.329 42.5939 102.721 39.6667 102.721V106.721C44.8273 106.721 48.9889 102.513 48.9889 97.351H44.9889ZM39.6667 91.9814C42.5939 91.9814 44.9889 94.3733 44.9889 97.351H48.9889C48.9889 92.1885 44.8273 87.9814 39.6667 87.9814V91.9814ZM34.3445 97.351C34.3445 94.3733 36.7395 91.9814 39.6667 91.9814V87.9814C34.5061 87.9814 30.3445 92.1885 30.3445 97.351H34.3445ZM39.6667 102.721C36.7395 102.721 34.3445 100.329 34.3445 97.351H30.3445C30.3445 102.513 34.5061 106.721 39.6667 106.721V102.721ZM61.6334 106.721C66.7941 106.721 70.9556 102.513 70.9556 97.351H66.9556C66.9556 100.329 64.5606 102.721 61.6334 102.721V106.721ZM52.3113 97.351C52.3113 102.513 56.4728 106.721 61.6334 106.721V102.721C58.7062 102.721 56.3113 100.329 56.3113 97.351H52.3113ZM61.6334 87.9814C56.4728 87.9814 52.3113 92.1885 52.3113 97.351H56.3113C56.3113 94.3733 58.7062 91.9814 61.6334 91.9814V87.9814ZM70.9556 97.351C70.9556 92.1885 66.7941 87.9814 61.6334 87.9814V91.9814C64.5606 91.9814 66.9556 94.3733 66.9556 97.351H70.9556Z" fill="#FFFBF5" mask="url(#path-4-inside-3_67_159)"/>
<path fill-rule="evenodd" clip-rule="evenodd" d="M47.3228 20.5112C50.0353 10.5088 59.5684 5.34961 69.4048 5.34961C79.2412 5.34961 88.7744 10.5088 91.4868 20.5112C91.7036 21.3108 92.5276 21.7832 93.3271 21.5663C94.1267 21.3495 94.5991 20.5256 94.3822 19.726C91.2122 8.03642 80.1569 2.34961 69.4048 2.34961C58.6527 2.34961 47.5974 8.03642 44.4274 19.726C44.2106 20.5256 44.683 21.3495 45.4825 21.5663C46.2821 21.7832 47.106 21.3108 47.3228 20.5112ZM69.4045 18.0033C63.6118 18.0033 57.9897 21.2822 56.3798 27.7135C56.1786 28.5172 55.3641 29.0056 54.5604 28.8044C53.7568 28.6032 53.2684 27.7887 53.4696 26.985C55.4796 18.955 62.5273 15.0033 69.4045 15.0033C76.2817 15.0033 83.3293 18.955 85.3394 26.985C85.5406 27.7887 85.0522 28.6032 84.2486 28.8044C83.4449 29.0056 82.6304 28.5172 82.4292 27.7135C80.8193 21.2822 75.1972 18.0033 69.4045 18.0033ZM76.6449 34.58C76.6449 38.5734 73.4035 41.8107 69.405 41.8107C65.4065 41.8107 62.1651 38.5734 62.1651 34.58C62.1651 30.5866 65.4065 27.3493 69.405 27.3493C73.4035 27.3493 76.6449 30.5866 76.6449 34.58Z" fill="#FFFBF5"/>
</svg>
