<svg width="159" height="159" viewBox="0 0 159 159" fill="none" xmlns="http://www.w3.org/2000/svg">
<path d="M126.763 21.1507C126.763 18.9815 125.905 17.0027 124.522 15.5962C123.187 14.1895 121.304 13.3313 119.254 13.3313H39.7708C37.696 13.3313 35.8366 14.1895 34.4781 15.5962C33.0951 17.0027 32.2369 18.9815 32.2369 21.1507V137.849C32.2369 140.018 33.0951 141.997 34.4781 143.404C35.8366 144.81 37.696 145.669 39.7708 145.669H119.254C121.304 145.669 123.187 144.811 124.522 143.404C125.905 141.997 126.763 140.018 126.763 137.849V21.1507ZM129.028 11.2093C131.532 13.7603 133.057 17.2887 133.057 21.1505V137.849C133.057 141.711 131.532 145.239 129.028 147.79C126.525 150.365 123.068 151.962 119.254 151.962H39.7708C35.9321 151.962 32.475 150.365 29.9724 147.79C27.4691 145.239 25.9432 141.711 25.9432 137.849V21.1507C25.9432 17.2887 27.4692 13.7603 29.9724 11.2095C32.475 8.63462 35.9321 7.0376 39.7708 7.0376H119.254C123.068 7.0376 126.525 8.63446 129.028 11.2093Z" fill="#FFFBF5"/>
<path d="M44.8482 19.6251H114.152C115.892 19.6251 117.466 20.3405 118.61 21.4845C119.755 22.629 120.469 24.2022 120.469 25.9427V47.995C120.469 49.7353 119.755 51.3082 118.61 52.4532C117.466 53.5972 115.892 54.2888 114.152 54.2888H44.8482C43.1077 54.2888 41.5348 53.5972 40.39 52.4532C39.246 51.3082 38.5543 49.7355 38.5543 47.995V25.9427C38.5543 24.2023 39.246 22.6291 40.39 21.4845C41.535 20.3405 43.1077 19.6251 44.8482 19.6251ZM114.152 25.9427H44.8482V47.995H114.152V25.9427ZM44.8482 60.6064H54.2891C56.0296 60.6064 57.6031 61.2979 58.7474 62.4421C59.8914 63.5869 60.6068 65.1597 60.6068 66.9001V76.3411C60.6068 78.0819 59.8914 79.6548 58.7474 80.7998C57.6032 81.944 56.0297 82.6591 54.2891 82.6591H44.8482C43.1077 82.6591 41.5348 81.944 40.39 80.7998C39.246 79.655 38.5543 78.0821 38.5543 76.3411V66.9001C38.5543 65.1597 39.246 63.5869 40.39 62.4421C41.535 61.2979 43.1077 60.6064 44.8482 60.6064ZM54.2891 66.9001H44.8482V76.3411H54.2891V66.9001ZM75.2442 60.6064H84.7091C86.4494 60.6064 88.0231 61.2979 89.1673 62.4421C90.3113 63.5869 91.003 65.1597 91.003 66.9001V76.3411C91.003 78.0819 90.3113 79.6548 89.1673 80.7998C88.0233 81.944 86.4496 82.6591 84.7091 82.6591H75.2442C73.5285 82.6591 71.955 81.944 70.8108 80.7998C69.666 79.655 68.9515 78.0821 68.9515 76.3411V66.9001C68.9515 65.1597 69.666 63.5869 70.8108 62.4421C71.3926 61.8593 72.0837 61.3971 72.8445 61.0821C73.6053 60.7671 74.4208 60.6054 75.2442 60.6064ZM84.7091 66.9001H75.2442V76.3411H84.7091V66.9001ZM44.8482 88.953H54.2891C56.0296 88.953 57.6031 89.6683 58.7474 90.8124C59.8914 91.9327 60.6068 93.5301 60.6068 95.2466V104.711C60.6068 106.452 59.8914 108.025 58.7474 109.17C57.6032 110.29 56.0297 111.005 54.2891 111.005H44.8482C43.1077 111.005 41.5348 110.29 40.39 109.17C39.246 108.025 38.5543 106.452 38.5543 104.711V95.2466C38.5543 93.5301 39.246 91.9327 40.39 90.8124C41.535 89.6682 43.1077 88.953 44.8482 88.953ZM54.2891 95.2466H44.8482V104.711H54.2891V95.2466ZM75.2442 88.953H84.7091C86.4494 88.953 88.0231 89.6683 89.1673 90.8124C90.3113 91.9327 91.003 93.5301 91.003 95.2466V104.711C91.003 106.452 90.3113 108.025 89.1673 109.17C88.0233 110.29 86.4496 111.005 84.7091 111.005H75.2442C73.5285 111.005 71.955 110.29 70.8108 109.17C69.666 108.025 68.9515 106.452 68.9515 104.711V95.2466C68.9515 93.5301 69.666 91.9327 70.8108 90.8124C71.955 89.6682 73.5285 88.953 75.2442 88.953ZM84.7091 95.2466H75.2442V104.711H84.7091V95.2466ZM44.8482 117.299H54.2891C56.0296 117.299 57.6031 118.014 58.7474 119.158C59.8914 120.302 60.6068 121.876 60.6068 123.617V133.057C60.6068 134.797 59.8914 136.371 58.7474 137.515C57.6032 138.66 56.0297 139.374 54.2891 139.374H44.8482C43.1077 139.374 41.5348 138.66 40.39 137.515C39.246 136.371 38.5543 134.797 38.5543 133.057V123.617C38.5543 121.876 39.246 120.303 40.39 119.158C41.535 118.014 43.1077 117.299 44.8482 117.299ZM54.2891 123.617H44.8482V133.057H54.2891V123.617ZM75.2442 117.299H84.7091C86.4494 117.299 88.0231 118.014 89.1673 119.158C90.3113 120.302 91.003 121.876 91.003 123.617V133.057C91.003 134.797 90.3113 136.371 89.1673 137.515C88.0233 138.66 86.4496 139.374 84.7091 139.374H75.2442C73.5285 139.374 71.955 138.66 70.8108 137.515C69.666 136.371 68.9515 134.797 68.9515 133.057V123.617C68.9515 121.876 69.666 120.303 70.8108 119.158C71.955 118.014 73.5285 117.299 75.2442 117.299ZM84.7091 123.617H75.2442V133.057H84.7091V123.617ZM104.712 60.6064H114.152C115.892 60.6064 117.466 61.2979 118.61 62.4421C119.755 63.5869 120.469 65.1597 120.469 66.9001V76.3411C120.469 78.0819 119.755 79.6548 118.61 80.7998C117.466 81.944 115.892 82.6591 114.152 82.6591H104.712C102.971 82.6591 101.398 81.944 100.253 80.7998C99.1084 79.655 98.4167 78.0821 98.4167 76.3411V66.9001C98.4167 65.1597 99.1084 63.5869 100.253 62.4421C101.398 61.2979 102.971 60.6064 104.712 60.6064ZM114.152 66.9001H104.712V76.3411H114.152V66.9001ZM103.806 88.953H115.057C116.56 88.953 117.894 89.5493 118.873 90.5265C119.85 91.5039 120.469 92.8622 120.469 94.3644V133.963C120.469 135.441 119.85 136.8 118.873 137.778C117.894 138.755 116.536 139.374 115.057 139.374H103.806C102.327 139.374 100.968 138.755 99.9905 137.778C99.0132 136.8 98.4169 135.441 98.4169 133.963V94.3644C98.4169 92.8861 99.0132 91.5275 99.9905 90.5504L100.014 90.5265C100.992 89.5492 102.327 88.953 103.806 88.953ZM114.152 95.2466H104.712V133.057H114.152V95.2466Z" fill="#FFFBF5"/>
</svg>
