<svg width="146" height="146" viewBox="0 0 146 146" fill="none" xmlns="http://www.w3.org/2000/svg">
<path d="M144.532 98.8558C145.511 99.8346 146 100.976 146 102.281V131.645C146 133.058 145.511 134.227 144.532 135.152C143.553 136.076 142.357 136.538 140.943 136.538H111.58C110.275 136.538 109.133 136.076 108.154 135.152C107.175 134.228 106.686 133.058 106.686 131.645V102.281C106.686 101.411 106.904 100.596 107.339 99.8346C107.774 99.0734 108.372 98.4752 109.133 98.0401C109.895 97.6049 110.71 97.3875 111.58 97.3875H122.673V77.9753C122.673 77.3228 122.51 76.7247 122.183 76.1809C121.857 75.6371 121.422 75.2021 120.878 74.8758C120.335 74.5496 119.737 74.3865 119.084 74.3865H77.4861V97.3876H88.5788C89.8838 97.3876 91.0257 97.877 92.0045 98.8558C92.9833 99.8346 93.4726 100.976 93.4726 102.281V131.645C93.4726 132.515 93.2551 133.33 92.8201 134.092C92.3851 134.853 91.7869 135.451 91.0257 135.886C90.2645 136.321 89.4488 136.538 88.5788 136.538H59.2157C58.3457 136.538 57.53 136.321 56.7688 135.886C56.0075 135.451 55.3822 134.853 54.8927 134.092C54.4033 133.33 54.1586 132.515 54.1586 131.645V102.281C54.1586 100.976 54.6479 99.8346 55.6267 98.8558C56.6055 97.877 57.8017 97.3876 59.2155 97.3876H70.1452V74.3865H26.9162C25.8286 74.3865 24.9315 74.74 24.2246 75.4469C23.5177 76.1538 23.1642 76.9966 23.1642 77.9753V97.3876H34.257C35.6708 97.3876 36.8398 97.877 37.7642 98.8558C38.6887 99.8346 39.1508 100.976 39.1508 102.281V131.645C39.1508 133.058 38.6886 134.227 37.7642 135.152C36.8399 136.076 35.6708 136.538 34.257 136.538H4.89385C4.35006 136.538 3.8335 136.457 3.34417 136.294C2.85484 136.131 2.41984 135.913 2.03915 135.641C1.65847 135.369 1.30502 135.016 0.978799 134.581C0.65258 134.146 0.407916 133.684 0.244664 133.194C0.0815547 132.705 0 132.188 0 131.645V102.281C0 101.846 0.0543223 101.411 0.163109 100.976C0.271896 100.541 0.435006 100.161 0.652438 99.8346C0.869869 99.5084 1.14177 99.182 1.46813 98.8558C1.79449 98.5296 2.12071 98.2577 2.44693 98.0401C2.77314 97.8225 3.15383 97.6594 3.58883 97.5508C4.02384 97.4421 4.45885 97.3876 4.89385 97.3876H15.9866V70.6346C15.9866 69.6558 16.34 68.813 17.0469 68.1061C17.7538 67.3992 18.5966 67.0457 19.5754 67.0457H70.1453V48.7754H59.2157C57.8019 48.7754 56.6057 48.286 55.6269 47.3072C54.6481 46.3284 54.1587 45.1865 54.1587 43.8815V14.5184C54.1587 13.1046 54.6481 11.9084 55.6269 10.9296C56.6057 9.95075 57.8019 9.46143 59.2157 9.46143H88.5788C89.4488 9.46143 90.2645 9.70609 91.0257 10.1956C91.7869 10.6849 92.3851 11.3102 92.8201 12.0716C93.2551 12.8328 93.4726 13.6485 93.4726 14.5185V43.8816C93.4726 45.1867 92.9833 46.3286 92.0045 47.3074C91.0257 48.2862 89.8838 48.7755 88.5788 48.7755H77.4861V67.0459H126.261C127.349 67.0459 128.246 67.3993 128.953 68.1062C129.66 68.8131 130.013 69.6559 130.013 70.6347V97.3878H140.943C142.357 97.3876 143.553 97.877 144.532 98.8558Z" fill="#FFFBF5"/>
</svg>
