<svg width="157" height="126" viewBox="0 0 157 126" fill="none" xmlns="http://www.w3.org/2000/svg">
<rect x="5" y="72" width="147" height="49" rx="8" stroke="#FFFBF5" stroke-width="10"/>
<mask id="path-2-inside-1_67_159" fill="white">
<path d="M122.341 7.86951C123.172 7.86951 123.846 8.96933 123.846 10.326V76.6521H117.824V10.326C117.824 8.96933 118.498 7.86951 119.33 7.86951L122.341 7.86951Z"/>
<path d="M33.5165 7.86951C34.3479 7.86951 35.022 8.96933 35.022 10.326L35.022 76.6521H29L29 10.326C29 8.96933 29.674 7.86951 30.5055 7.86951L33.5165 7.86951Z"/>
</mask>
<path d="M122.341 7.86951C123.172 7.86951 123.846 8.96933 123.846 10.326V76.6521H117.824V10.326C117.824 8.96933 118.498 7.86951 119.33 7.86951L122.341 7.86951Z" fill="#FFFBF5"/>
<path d="M33.5165 7.86951C34.3479 7.86951 35.022 8.96933 35.022 10.326L35.022 76.6521H29L29 10.326C29 8.96933 29.674 7.86951 30.5055 7.86951L33.5165 7.86951Z" fill="#FFFBF5"/>
<path d="M123.846 76.6521V77.6521H124.846V76.6521H123.846ZM117.824 76.6521H116.824V77.6521H117.824V76.6521ZM117.824 10.326L116.824 10.326V10.326H117.824ZM119.33 7.86951L119.33 8.86951L119.33 7.86951ZM123.846 10.326L122.846 10.326V10.326H123.846ZM122.341 7.86951L122.341 6.86951L122.341 7.86951ZM35.022 76.6521V77.6521H36.022L36.022 76.6521L35.022 76.6521ZM29 76.6521L28 76.6521L28 77.6521H29V76.6521ZM29 10.326L30 10.326L29 10.326ZM30.5055 7.86951L30.5055 6.86951L30.5055 7.86951ZM35.022 10.326L36.022 10.326L35.022 10.326ZM33.5165 7.86951L33.5165 8.86951L33.5165 7.86951ZM122.846 10.326V76.6521H124.846V10.326H122.846ZM123.846 75.6521H117.824V77.6521H123.846V75.6521ZM118.824 76.6521V10.326H116.824V76.6521H118.824ZM119.33 8.86951L122.341 8.86951L122.341 6.86951L119.33 6.86951L119.33 8.86951ZM118.824 10.326C118.824 9.80153 118.956 9.37465 119.118 9.11154C119.289 8.83168 119.393 8.86951 119.33 8.86951L119.33 6.86951C118.435 6.86951 117.786 7.45725 117.413 8.06647C117.029 8.69245 116.824 9.49383 116.824 10.326L118.824 10.326ZM124.846 10.326C124.846 9.49383 124.641 8.69245 124.258 8.06647C123.884 7.45725 123.235 6.86951 122.341 6.86951L122.341 8.86951C122.278 8.86951 122.381 8.83168 122.553 9.11154C122.714 9.37465 122.846 9.80153 122.846 10.326L124.846 10.326ZM34.022 10.326L34.022 76.6521L36.022 76.6521L36.022 10.326L34.022 10.326ZM35.022 75.6521H29V77.6521H35.022V75.6521ZM30 76.6521L30 10.326L28 10.326L28 76.6521L30 76.6521ZM30.5055 8.86951L33.5165 8.86951L33.5165 6.86951L30.5055 6.86951L30.5055 8.86951ZM30 10.326C30 9.80153 30.1323 9.37465 30.2936 9.11154C30.4651 8.83168 30.5686 8.86951 30.5055 8.86951L30.5055 6.86951C29.611 6.86951 28.9617 7.45725 28.5883 8.06647C28.2047 8.69245 28 9.49382 28 10.326L30 10.326ZM36.022 10.326C36.022 9.49383 35.8173 8.69245 35.4336 8.06647C35.0603 7.45725 34.411 6.86951 33.5165 6.86951L33.5165 8.86951C33.4534 8.86951 33.5569 8.83168 33.7284 9.11154C33.8897 9.37465 34.022 9.80153 34.022 10.326L36.022 10.326Z" fill="#FFFBF5" mask="url(#path-2-inside-1_67_159)"/>
<mask id="path-4-outside-2_67_159" maskUnits="userSpaceOnUse" x="17.3788" y="88.9814" width="61" height="17" fill="black">
<rect fill="white" x="17.3788" y="88.9814" width="61" height="17"/>
<path fill-rule="evenodd" clip-rule="evenodd" d="M25.701 102.721C28.6282 102.721 31.0231 100.329 31.0231 97.351C31.0231 94.3733 28.6282 91.9814 25.701 91.9814C22.7737 91.9814 20.3788 94.3733 20.3788 97.351C20.3788 100.329 22.7737 102.721 25.701 102.721ZM47.6667 102.721C50.5939 102.721 52.9889 100.329 52.9889 97.351C52.9889 94.3733 50.5939 91.9814 47.6667 91.9814C44.7395 91.9814 42.3445 94.3733 42.3445 97.351C42.3445 100.329 44.7395 102.721 47.6667 102.721ZM69.6334 102.721C72.5606 102.721 74.9556 100.329 74.9556 97.351C74.9556 94.3733 72.5606 91.9814 69.6334 91.9814C66.7062 91.9814 64.3113 94.3733 64.3113 97.351C64.3113 100.329 66.7062 102.721 69.6334 102.721ZM25.701 104.721C29.7449 104.721 33.0231 101.421 33.0231 97.351C33.0231 93.2809 29.7449 89.9814 25.701 89.9814C21.657 89.9814 18.3788 93.2809 18.3788 97.351C18.3788 101.421 21.657 104.721 25.701 104.721ZM47.6667 104.721C51.7106 104.721 54.9889 101.421 54.9889 97.351C54.9889 93.2809 51.7106 89.9814 47.6667 89.9814C43.6228 89.9814 40.3445 93.2809 40.3445 97.351C40.3445 101.421 43.6228 104.721 47.6667 104.721ZM76.9556 97.351C76.9556 101.421 73.6774 104.721 69.6334 104.721C65.5895 104.721 62.3113 101.421 62.3113 97.351C62.3113 93.2809 65.5895 89.9814 69.6334 89.9814C73.6774 89.9814 76.9556 93.2809 76.9556 97.351Z"/>
</mask>
<path fill-rule="evenodd" clip-rule="evenodd" d="M25.701 102.721C28.6282 102.721 31.0231 100.329 31.0231 97.351C31.0231 94.3733 28.6282 91.9814 25.701 91.9814C22.7737 91.9814 20.3788 94.3733 20.3788 97.351C20.3788 100.329 22.7737 102.721 25.701 102.721ZM47.6667 102.721C50.5939 102.721 52.9889 100.329 52.9889 97.351C52.9889 94.3733 50.5939 91.9814 47.6667 91.9814C44.7395 91.9814 42.3445 94.3733 42.3445 97.351C42.3445 100.329 44.7395 102.721 47.6667 102.721ZM69.6334 102.721C72.5606 102.721 74.9556 100.329 74.9556 97.351C74.9556 94.3733 72.5606 91.9814 69.6334 91.9814C66.7062 91.9814 64.3113 94.3733 64.3113 97.351C64.3113 100.329 66.7062 102.721 69.6334 102.721ZM25.701 104.721C29.7449 104.721 33.0231 101.421 33.0231 97.351C33.0231 93.2809 29.7449 89.9814 25.701 89.9814C21.657 89.9814 18.3788 93.2809 18.3788 97.351C18.3788 101.421 21.657 104.721 25.701 104.721ZM47.6667 104.721C51.7106 104.721 54.9889 101.421 54.9889 97.351C54.9889 93.2809 51.7106 89.9814 47.6667 89.9814C43.6228 89.9814 40.3445 93.2809 40.3445 97.351C40.3445 101.421 43.6228 104.721 47.6667 104.721ZM76.9556 97.351C76.9556 101.421 73.6774 104.721 69.6334 104.721C65.5895 104.721 62.3113 101.421 62.3113 97.351C62.3113 93.2809 65.5895 89.9814 69.6334 89.9814C73.6774 89.9814 76.9556 93.2809 76.9556 97.351Z" fill="#FFFBF5"/>
<path d="M30.0231 97.351C30.0231 99.7818 28.0705 101.721 25.701 101.721V103.721C29.1858 103.721 32.0231 100.876 32.0231 97.351H30.0231ZM25.701 92.9814C28.0705 92.9814 30.0231 94.9202 30.0231 97.351H32.0231C32.0231 93.8264 29.1858 90.9814 25.701 90.9814V92.9814ZM21.3788 97.351C21.3788 94.9202 23.3314 92.9814 25.701 92.9814V90.9814C22.2161 90.9814 19.3788 93.8264 19.3788 97.351H21.3788ZM25.701 101.721C23.3314 101.721 21.3788 99.7818 21.3788 97.351H19.3788C19.3788 100.876 22.2161 103.721 25.701 103.721V101.721ZM51.9889 97.351C51.9889 99.7818 50.0362 101.721 47.6667 101.721V103.721C51.1516 103.721 53.9889 100.876 53.9889 97.351H51.9889ZM47.6667 92.9814C50.0362 92.9814 51.9889 94.9202 51.9889 97.351H53.9889C53.9889 93.8264 51.1516 90.9814 47.6667 90.9814V92.9814ZM43.3445 97.351C43.3445 94.9202 45.2972 92.9814 47.6667 92.9814V90.9814C44.1818 90.9814 41.3445 93.8264 41.3445 97.351H43.3445ZM47.6667 101.721C45.2972 101.721 43.3445 99.7818 43.3445 97.351H41.3445C41.3445 100.876 44.1818 103.721 47.6667 103.721V101.721ZM73.9556 97.351C73.9556 99.7818 72.003 101.721 69.6334 101.721V103.721C73.1183 103.721 75.9556 100.876 75.9556 97.351H73.9556ZM69.6334 92.9814C72.003 92.9814 73.9556 94.9202 73.9556 97.351H75.9556C75.9556 93.8264 73.1183 90.9814 69.6334 90.9814V92.9814ZM65.3113 97.351C65.3113 94.9202 67.2639 92.9814 69.6334 92.9814V90.9814C66.1486 90.9814 63.3113 93.8264 63.3113 97.351H65.3113ZM69.6334 101.721C67.2639 101.721 65.3113 99.7818 65.3113 97.351H63.3113C63.3113 100.876 66.1486 103.721 69.6334 103.721V101.721ZM32.0231 97.351C32.0231 100.875 29.1865 103.721 25.701 103.721V105.721C30.3032 105.721 34.0231 101.967 34.0231 97.351H32.0231ZM25.701 90.9814C29.1865 90.9814 32.0231 93.8271 32.0231 97.351H34.0231C34.0231 92.7347 30.3032 88.9814 25.701 88.9814V90.9814ZM19.3788 97.351C19.3788 93.8271 22.2154 90.9814 25.701 90.9814V88.9814C21.0987 88.9814 17.3788 92.7347 17.3788 97.351H19.3788ZM25.701 103.721C22.2154 103.721 19.3788 100.875 19.3788 97.351H17.3788C17.3788 101.967 21.0987 105.721 25.701 105.721V103.721ZM53.9889 97.351C53.9889 100.875 51.1523 103.721 47.6667 103.721V105.721C52.269 105.721 55.9889 101.967 55.9889 97.351H53.9889ZM47.6667 90.9814C51.1523 90.9814 53.9889 93.8271 53.9889 97.351H55.9889C55.9889 92.7347 52.269 88.9814 47.6667 88.9814V90.9814ZM41.3445 97.351C41.3445 93.8271 44.1811 90.9814 47.6667 90.9814V88.9814C43.0644 88.9814 39.3445 92.7347 39.3445 97.351H41.3445ZM47.6667 103.721C44.1811 103.721 41.3445 100.875 41.3445 97.351H39.3445C39.3445 101.967 43.0644 105.721 47.6667 105.721V103.721ZM69.6334 105.721C74.2357 105.721 77.9556 101.967 77.9556 97.351H75.9556C75.9556 100.875 73.119 103.721 69.6334 103.721V105.721ZM61.3113 97.351C61.3113 101.967 65.0312 105.721 69.6334 105.721V103.721C66.1479 103.721 63.3113 100.875 63.3113 97.351H61.3113ZM69.6334 88.9814C65.0312 88.9814 61.3113 92.7347 61.3113 97.351H63.3113C63.3113 93.8271 66.1479 90.9814 69.6334 90.9814V88.9814ZM77.9556 97.351C77.9556 92.7347 74.2357 88.9814 69.6334 88.9814V90.9814C73.119 90.9814 75.9556 93.8271 75.9556 97.351H77.9556Z" fill="#FFFBF5" mask="url(#path-4-outside-2_67_159)"/>
<path fill-rule="evenodd" clip-rule="evenodd" d="M56.7706 20.9038C59.2542 11.745 68.0263 6.84961 77.4048 6.84961C86.7834 6.84961 95.5554 11.745 98.0391 20.9038C98.4727 22.5029 100.121 23.4477 101.72 23.0141C103.319 22.5804 104.264 20.9326 103.83 19.3335C100.431 6.80022 88.6148 0.849609 77.4048 0.849609C66.1949 0.84961 54.3785 6.80022 50.9797 19.3335C50.5461 20.9326 51.4909 22.5804 53.09 23.0141C54.6891 23.4477 56.3369 22.5029 56.7706 20.9038ZM77.4045 19.5033C72.1541 19.5033 67.2447 22.4458 65.8349 28.0778C65.4326 29.685 63.8035 30.6618 62.1962 30.2595C60.5889 29.8572 59.6121 28.2281 60.0145 26.6208C62.2246 17.7915 69.9851 13.5033 77.4045 13.5033C84.8239 13.5033 92.5844 17.7915 94.7945 26.6208C95.1968 28.2281 94.2201 29.8572 92.6128 30.2595C91.0055 30.6618 89.3764 29.685 88.9741 28.0778C87.5643 22.4458 82.6549 19.5033 77.4045 19.5033ZM84.6449 34.58C84.6449 38.5734 81.4035 41.8107 77.405 41.8107C73.4065 41.8107 70.1651 38.5734 70.1651 34.58C70.1651 30.5866 73.4065 27.3493 77.405 27.3493C81.4035 27.3493 84.6449 30.5866 84.6449 34.58Z" fill="#FFFBF5"/>
</svg>
