<svg width="256" height="33" viewBox="0 0 256 33" fill="none" xmlns="http://www.w3.org/2000/svg">
<path fill-rule="evenodd" clip-rule="evenodd" d="M36.2273 27.7636C36.2273 29.3327 34.9675 30.6242 33.3676 30.6954L4.14172 31.9969C2.43562 32.0729 1.01001 30.7383 1.01001 29.0651V15.086L1.00001 15.0859L1.00308 13.6486C1.00322 13.5822 1.00555 13.5166 1.01001 13.4516V8.94846C0.909462 7.7207 1.56602 6.43618 2.9939 5.9398L16.7174 1.16903C17.7609 0.806288 18.9235 1.03697 19.7406 1.7689L35.2349 15.6473C35.9916 16.3251 36.2785 17.173 36.219 17.9823C36.2244 18.0141 36.2273 18.0468 36.2273 18.0801V27.7636ZM18.9321 2.63529C18.4418 2.19614 17.7442 2.05772 17.1182 2.27537L3.39462 7.04614C2.52813 7.34736 2.13504 8.13231 2.20653 8.87651H2.20828V8.89391C2.27642 9.53739 2.69248 10.1473 3.45072 10.3836L3.45796 10.3859L8.97324 12.1808L32.6669 19.4908L32.6686 19.4913C34.505 20.0637 35.8486 17.7877 34.4264 16.5137L18.9321 2.63529ZM8.59991 13.2964L8.59741 13.2955L4.56529 11.9836C3.45349 11.6218 2.3075 12.3806 2.20828 13.4976V29.0651C2.20828 30.069 3.06365 30.8698 4.08731 30.8242L33.3132 29.5227C34.2732 29.48 35.029 28.7051 35.029 27.7636V22.7479C35.029 21.9797 34.5206 21.3001 33.7729 21.0688L8.59991 13.2964Z" fill="url(#paint0_linear_421_174)" stroke="url(#paint1_linear_421_174)"/>
<path d="M59.575 9.125V12.075H53.05C51.4167 12.075 50.225 12.5083 49.475 13.375C48.7417 14.225 48.375 15.625 48.375 17.575C48.375 19.5083 48.7417 20.9083 49.475 21.775C50.2083 22.625 51.4 23.05 53.05 23.05H59.575V26H53.05C50.5833 26 48.6917 25.3083 47.375 23.925C46.075 22.525 45.425 20.4083 45.425 17.575C45.425 14.725 46.075 12.6083 47.375 11.225C48.6917 9.825 50.5833 9.125 53.05 9.125H59.575ZM71.541 12.8C73.1077 12.8 74.241 13.1583 74.941 13.875C75.641 14.575 75.991 15.5667 75.991 16.85C75.991 18.0667 75.6494 19.0083 74.966 19.675C74.2827 20.325 73.1327 20.65 71.516 20.65H65.241V21.6C65.241 22.1333 65.391 22.575 65.691 22.925C66.0077 23.2583 66.5327 23.425 67.266 23.425H75.341V26H67.266C66.4327 26 65.7243 25.8917 65.141 25.675C64.5743 25.4583 64.0993 25.1583 63.716 24.775C63.3493 24.375 63.0827 23.9167 62.916 23.4C62.7493 22.8667 62.666 22.2833 62.666 21.65V17.15C62.666 16.5333 62.7493 15.9583 62.916 15.425C63.0827 14.8917 63.3493 14.4333 63.716 14.05C64.0993 13.65 64.5743 13.3417 65.141 13.125C65.7243 12.9083 66.4327 12.8 67.266 12.8H71.541ZM65.241 18.575H71.441C72.1577 18.575 72.6577 18.4333 72.941 18.15C73.241 17.8667 73.391 17.4833 73.391 17C73.391 16.5 73.241 16.1 72.941 15.8C72.641 15.5 72.166 15.35 71.516 15.35H67.266C66.5327 15.35 66.0077 15.525 65.691 15.875C65.391 16.225 65.241 16.6583 65.241 17.175V18.575ZM87.6996 12.8C89.4496 12.8 90.8329 13.35 91.8496 14.45C92.8829 15.5333 93.3996 17.1833 93.3996 19.4C93.3996 21.6333 92.8829 23.2917 91.8496 24.375C90.8329 25.4583 89.4496 26 87.6996 26H81.8496V31.3H79.1996V18.45C79.1996 16.5333 79.6079 15.1167 80.4246 14.2C81.2413 13.2667 82.4496 12.8 84.0496 12.8H87.6996ZM81.8496 23.425H87.4246C88.5746 23.425 89.4079 23.1167 89.9246 22.5C90.4579 21.8667 90.7246 20.8333 90.7246 19.4C90.7246 17.9667 90.4579 16.9333 89.9246 16.3C89.4079 15.6667 88.5746 15.35 87.4246 15.35H84.8246C83.7413 15.35 82.9746 15.6 82.5246 16.1C82.0746 16.6 81.8496 17.425 81.8496 18.575V23.425ZM99.2336 7.075V12.8H103.884C106.117 12.8 107.784 13.3083 108.884 14.325C109.984 15.3417 110.534 16.7583 110.534 18.575V26H107.859V18.575C107.859 17.5583 107.542 16.7667 106.909 16.2C106.275 15.6333 105.267 15.35 103.884 15.35H99.2336V26H96.5836V7.075H99.2336ZM122.859 12.8C124.426 12.8 125.559 13.1583 126.259 13.875C126.959 14.575 127.309 15.5667 127.309 16.85C127.309 18.0667 126.968 19.0083 126.284 19.675C125.601 20.325 124.451 20.65 122.834 20.65H116.559V21.6C116.559 22.1333 116.709 22.575 117.009 22.925C117.326 23.2583 117.851 23.425 118.584 23.425H126.659V26H118.584C117.751 26 117.043 25.8917 116.459 25.675C115.893 25.4583 115.418 25.1583 115.034 24.775C114.668 24.375 114.401 23.9167 114.234 23.4C114.068 22.8667 113.984 22.2833 113.984 21.65V17.15C113.984 16.5333 114.068 15.9583 114.234 15.425C114.401 14.8917 114.668 14.4333 115.034 14.05C115.418 13.65 115.893 13.3417 116.459 13.125C117.043 12.9083 117.751 12.8 118.584 12.8H122.859ZM116.559 18.575H122.759C123.476 18.575 123.976 18.4333 124.259 18.15C124.559 17.8667 124.709 17.4833 124.709 17C124.709 16.5 124.559 16.1 124.259 15.8C123.959 15.5 123.484 15.35 122.834 15.35H118.584C117.851 15.35 117.326 15.525 117.009 15.875C116.709 16.225 116.559 16.6583 116.559 17.175V18.575ZM133.168 12.8V20.7C133.168 21.4833 133.443 22.1333 133.993 22.65C134.56 23.1667 135.368 23.425 136.418 23.425H138.568C139.618 23.425 140.418 23.1667 140.968 22.65C141.518 22.1333 141.793 21.4833 141.793 20.7V12.8H144.393V20.8C144.393 21.5667 144.268 22.2667 144.018 22.9C143.785 23.5333 143.426 24.0833 142.943 24.55C142.46 25 141.86 25.3583 141.143 25.625C140.443 25.875 139.618 26 138.668 26H136.218C135.268 26 134.435 25.875 133.718 25.625C133.018 25.3583 132.426 25 131.943 24.55C131.46 24.0833 131.093 23.5333 130.843 22.9C130.61 22.2667 130.493 21.5667 130.493 20.8V12.8H133.168ZM159.122 12.8V15.35H151.822C151.205 15.35 150.763 15.475 150.497 15.725C150.23 15.975 150.097 16.35 150.097 16.85C150.097 17.3167 150.222 17.675 150.472 17.925C150.738 18.1583 151.238 18.275 151.972 18.275H155.072C155.988 18.275 156.738 18.375 157.322 18.575C157.922 18.775 158.388 19.0417 158.722 19.375C159.072 19.7083 159.313 20.1 159.447 20.55C159.58 21 159.647 21.4833 159.647 22C159.647 22.5833 159.563 23.125 159.397 23.625C159.247 24.1083 158.997 24.525 158.647 24.875C158.297 25.225 157.847 25.5 157.297 25.7C156.747 25.9 156.088 26 155.322 26H147.647V23.425H155.322C155.938 23.425 156.38 23.3167 156.647 23.1C156.913 22.8667 157.047 22.4917 157.047 21.975C157.047 21.4417 156.897 21.0667 156.597 20.85C156.313 20.6167 155.838 20.5 155.172 20.5H152.047C151.13 20.5 150.38 20.4 149.797 20.2C149.213 19.9833 148.747 19.7 148.397 19.35C148.063 18.9833 147.83 18.5667 147.697 18.1C147.563 17.6333 147.497 17.15 147.497 16.65C147.497 15.4667 147.83 14.5333 148.497 13.85C149.163 13.15 150.263 12.8 151.797 12.8H159.122ZM181.085 9.125V12.075H176.16V26H173.185V12.075H168.26V9.125H181.085ZM190.836 12.8C192.586 12.8 193.977 13.35 195.011 14.45C196.044 15.5333 196.561 17.1833 196.561 19.4C196.561 21.6333 196.044 23.2917 195.011 24.375C193.977 25.4583 192.586 26 190.836 26H188.061C186.294 26 184.894 25.4583 183.861 24.375C182.844 23.2917 182.336 21.6333 182.336 19.4C182.336 17.1667 182.844 15.5083 183.861 14.425C184.894 13.3417 186.294 12.8 188.061 12.8H190.836ZM188.311 15.35C187.161 15.35 186.319 15.6667 185.786 16.3C185.269 16.9333 185.011 17.9667 185.011 19.4C185.011 20.8333 185.269 21.8667 185.786 22.5C186.319 23.1167 187.161 23.425 188.311 23.425H190.586C191.736 23.425 192.569 23.1167 193.086 22.5C193.619 21.8667 193.886 20.8333 193.886 19.4C193.886 17.9667 193.619 16.9333 193.086 16.3C192.569 15.6667 191.736 15.35 190.586 15.35H188.311ZM207.608 12.8C209.358 12.8 210.75 13.35 211.783 14.45C212.816 15.5333 213.333 17.1833 213.333 19.4C213.333 21.6333 212.816 23.2917 211.783 24.375C210.75 25.4583 209.358 26 207.608 26H204.833C203.066 26 201.666 25.4583 200.633 24.375C199.616 23.2917 199.108 21.6333 199.108 19.4C199.108 17.1667 199.616 15.5083 200.633 14.425C201.666 13.3417 203.066 12.8 204.833 12.8H207.608ZM205.083 15.35C203.933 15.35 203.091 15.6667 202.558 16.3C202.041 16.9333 201.783 17.9667 201.783 19.4C201.783 20.8333 202.041 21.8667 202.558 22.5C203.091 23.1167 203.933 23.425 205.083 23.425H207.358C208.508 23.425 209.341 23.1167 209.858 22.5C210.391 21.8667 210.658 20.8333 210.658 19.4C210.658 17.9667 210.391 16.9333 209.858 16.3C209.341 15.6667 208.508 15.35 207.358 15.35H205.083ZM219.155 7.075V26H216.505V7.075H219.155ZM225.601 7.075V18.275H226.826C227.342 18.275 227.767 18.2667 228.101 18.25C228.451 18.2167 228.742 18.15 228.976 18.05C229.209 17.95 229.409 17.8 229.576 17.6C229.742 17.4 229.926 17.125 230.126 16.775L232.326 12.8H235.201L232.901 16.95C232.567 17.5333 232.226 18.0167 231.876 18.4C231.526 18.7667 231.084 19.0667 230.551 19.3C231.184 19.4833 231.692 19.7833 232.076 20.2C232.459 20.6 232.851 21.15 233.251 21.85L235.626 26H232.651L230.451 22.1C230.251 21.75 230.059 21.475 229.876 21.275C229.692 21.0583 229.467 20.9 229.201 20.8C228.951 20.6833 228.634 20.6083 228.251 20.575C227.884 20.525 227.409 20.5 226.826 20.5H225.601V26H222.951V7.075H225.601ZM240.64 12.8V26H237.99V12.8H240.64ZM240.665 7.825V10.9H237.99V7.825H240.665ZM244.91 12.8V9.675H247.585V12.8H251.235V15.35H247.585V21.6C247.585 22.35 247.718 22.8667 247.985 23.15C248.268 23.4333 248.727 23.575 249.36 23.575H251.185V26H248.81C248.127 26 247.535 25.925 247.035 25.775C246.552 25.625 246.152 25.375 245.835 25.025C245.518 24.675 245.285 24.2083 245.135 23.625C244.985 23.0417 244.91 22.3167 244.91 21.45V15.35H243.11V12.8H244.91Z" fill="url(#paint2_linear_421_174)"/>
<defs>
<linearGradient id="paint0_linear_421_174" x1="1" y1="17" x2="36" y2="17" gradientUnits="userSpaceOnUse">
<stop stop-color="#ED499A"/>
<stop offset="1" stop-color="#D44DBC"/>
</linearGradient>
<linearGradient id="paint1_linear_421_174" x1="1" y1="17" x2="36" y2="17" gradientUnits="userSpaceOnUse">
<stop stop-color="#ED499A"/>
<stop offset="1" stop-color="#D44DBC"/>
</linearGradient>
<linearGradient id="paint2_linear_421_174" x1="45" y1="17" x2="256" y2="17" gradientUnits="userSpaceOnUse">
<stop stop-color="#D44DBB"/>
<stop offset="1" stop-color="#6061E6"/>
</linearGradient>
</defs>
</svg>
