<svg width="677" height="72" viewBox="0 0 677 72" fill="none" xmlns="http://www.w3.org/2000/svg">
<path fill-rule="evenodd" clip-rule="evenodd" d="M80 61.434C80 64.977 77.175 67.8933 73.587 68.0542L8.04557 70.993C4.2195 71.1646 1.02245 68.151 1.02245 64.3728V32.807L1.00001 32.807L1.0069 29.5613C1.00722 29.4115 1.01246 29.2632 1.02245 29.1165V18.9481C0.796961 16.1758 2.26936 13.2752 5.47149 12.1544L36.2476 1.38168C38.5877 0.562586 41.1949 1.08349 43.0274 2.73622L77.7746 34.0746C79.4714 35.605 80.1149 37.5196 79.9814 39.3472C79.9936 39.419 80 39.4928 80 39.568V61.434ZM41.2141 4.69259C40.1146 3.70095 38.5503 3.38841 37.1463 3.87986L6.37013 14.6526C4.42695 15.3328 3.54541 17.1052 3.70574 18.7857H3.70968V18.825C3.86249 20.278 4.79551 21.6552 6.49594 22.1889L6.51217 22.194L18.8806 26.2471L72.0155 42.7534L72.0193 42.7545C76.1376 44.0471 79.1509 38.9076 75.9614 36.031L41.2141 4.69259ZM18.0434 28.7661L18.0378 28.7641L8.99546 25.8016C6.50215 24.9847 3.93217 26.6982 3.70968 29.2203V64.3728C3.70968 66.6397 5.6279 68.4479 7.92355 68.3449L73.465 65.4061C75.6177 65.3096 77.3128 63.5598 77.3128 61.434V50.1082C77.3128 48.3735 76.1727 46.839 74.4958 46.3166L18.0434 28.7661Z" fill="black" stroke="black" stroke-width="2"/>
<path d="M142.511 17.525V24.251H127.634C123.91 24.251 121.193 25.239 119.483 27.215C117.811 29.153 116.975 32.345 116.975 36.791C116.975 41.199 117.811 44.391 119.483 46.367C121.155 48.305 123.872 49.274 127.634 49.274H142.511V56H127.634C122.01 56 117.697 54.423 114.695 51.269C111.731 48.077 110.249 43.251 110.249 36.791C110.249 30.293 111.731 25.467 114.695 22.313C117.697 19.121 122.01 17.525 127.634 17.525H142.511ZM176.634 25.904C180.206 25.904 182.79 26.721 184.386 28.355C185.982 29.951 186.78 32.212 186.78 35.138C186.78 37.912 186.001 40.059 184.443 41.579C182.885 43.061 180.263 43.802 176.577 43.802H162.27V45.968C162.27 47.184 162.612 48.191 163.296 48.989C164.018 49.749 165.215 50.129 166.887 50.129H185.298V56H166.887C164.987 56 163.372 55.753 162.042 55.259C160.75 54.765 159.667 54.081 158.793 53.207C157.957 52.295 157.349 51.25 156.969 50.072C156.589 48.856 156.399 47.526 156.399 46.082V35.822C156.399 34.416 156.589 33.105 156.969 31.889C157.349 30.673 157.957 29.628 158.793 28.754C159.667 27.842 160.75 27.139 162.042 26.645C163.372 26.151 164.987 25.904 166.887 25.904H176.634ZM162.27 39.071H176.406C178.04 39.071 179.18 38.748 179.826 38.102C180.51 37.456 180.852 36.582 180.852 35.48C180.852 34.34 180.51 33.428 179.826 32.744C179.142 32.06 178.059 31.718 176.577 31.718H166.887C165.215 31.718 164.018 32.117 163.296 32.915C162.612 33.713 162.27 34.701 162.27 35.879V39.071ZM220.315 25.904C224.305 25.904 227.459 27.158 229.777 29.666C232.133 32.136 233.311 35.898 233.311 40.952C233.311 46.044 232.133 49.825 229.777 52.295C227.459 54.765 224.305 56 220.315 56H206.977V68.084H200.935V38.786C200.935 34.416 201.866 31.186 203.728 29.096C205.59 26.968 208.345 25.904 211.993 25.904H220.315ZM206.977 50.129H219.688C222.31 50.129 224.21 49.426 225.388 48.02C226.604 46.576 227.212 44.22 227.212 40.952C227.212 37.684 226.604 35.328 225.388 33.884C224.21 32.44 222.31 31.718 219.688 31.718H213.76C211.29 31.718 209.542 32.288 208.516 33.428C207.49 34.568 206.977 36.449 206.977 39.071V50.129ZM253.453 12.851V25.904H264.055C269.147 25.904 272.947 27.063 275.455 29.381C277.963 31.699 279.217 34.929 279.217 39.071V56H273.118V39.071C273.118 36.753 272.396 34.948 270.952 33.656C269.508 32.364 267.209 31.718 264.055 31.718H253.453V56H247.411V12.851H253.453ZM314.159 25.904C317.731 25.904 320.315 26.721 321.911 28.355C323.507 29.951 324.305 32.212 324.305 35.138C324.305 37.912 323.526 40.059 321.968 41.579C320.41 43.061 317.788 43.802 314.102 43.802H299.795V45.968C299.795 47.184 300.137 48.191 300.821 48.989C301.543 49.749 302.74 50.129 304.412 50.129H322.823V56H304.412C302.512 56 300.897 55.753 299.567 55.259C298.275 54.765 297.192 54.081 296.318 53.207C295.482 52.295 294.874 51.25 294.494 50.072C294.114 48.856 293.924 47.526 293.924 46.082V35.822C293.924 34.416 294.114 33.105 294.494 31.889C294.874 30.673 295.482 29.628 296.318 28.754C297.192 27.842 298.275 27.139 299.567 26.645C300.897 26.151 302.512 25.904 304.412 25.904H314.159ZM299.795 39.071H313.931C315.565 39.071 316.705 38.748 317.351 38.102C318.035 37.456 318.377 36.582 318.377 35.48C318.377 34.34 318.035 33.428 317.351 32.744C316.667 32.06 315.584 31.718 314.102 31.718H304.412C302.74 31.718 301.543 32.117 300.821 32.915C300.137 33.713 299.795 34.701 299.795 35.879V39.071ZM344.503 25.904V43.916C344.503 45.702 345.13 47.184 346.384 48.362C347.676 49.54 349.519 50.129 351.913 50.129H356.815C359.209 50.129 361.033 49.54 362.287 48.362C363.541 47.184 364.168 45.702 364.168 43.916V25.904H370.096V44.144C370.096 45.892 369.811 47.488 369.241 48.932C368.709 50.376 367.892 51.63 366.79 52.694C365.688 53.72 364.32 54.537 362.686 55.145C361.09 55.715 359.209 56 357.043 56H351.457C349.291 56 347.391 55.715 345.757 55.145C344.161 54.537 342.812 53.72 341.71 52.694C340.608 51.63 339.772 50.376 339.202 48.932C338.67 47.488 338.404 45.892 338.404 44.144V25.904H344.503ZM410.517 25.904V31.718H393.873C392.467 31.718 391.46 32.003 390.852 32.573C390.244 33.143 389.94 33.998 389.94 35.138C389.94 36.202 390.225 37.019 390.795 37.589C391.403 38.121 392.543 38.387 394.215 38.387H401.283C403.373 38.387 405.083 38.615 406.413 39.071C407.781 39.527 408.845 40.135 409.605 40.895C410.403 41.655 410.954 42.548 411.258 43.574C411.562 44.6 411.714 45.702 411.714 46.88C411.714 48.21 411.524 49.445 411.144 50.585C410.802 51.687 410.232 52.637 409.434 53.435C408.636 54.233 407.61 54.86 406.356 55.316C405.102 55.772 403.601 56 401.853 56H384.354V50.129H401.853C403.259 50.129 404.266 49.882 404.874 49.388C405.482 48.856 405.786 48.001 405.786 46.823C405.786 45.607 405.444 44.752 404.76 44.258C404.114 43.726 403.031 43.46 401.511 43.46H394.386C392.296 43.46 390.586 43.232 389.256 42.776C387.926 42.282 386.862 41.636 386.064 40.838C385.304 40.002 384.772 39.052 384.468 37.988C384.164 36.924 384.012 35.822 384.012 34.682C384.012 31.984 384.772 29.856 386.292 28.298C387.812 26.702 390.32 25.904 393.816 25.904H410.517ZM474.274 17.525V24.251H463.045V56H456.262V24.251H445.033V17.525H474.274ZM503.345 25.904C507.335 25.904 510.508 27.158 512.864 29.666C515.22 32.136 516.398 35.898 516.398 40.952C516.398 46.044 515.22 49.825 512.864 52.295C510.508 54.765 507.335 56 503.345 56H497.018C492.99 56 489.798 54.765 487.442 52.295C485.124 49.825 483.965 46.044 483.965 40.952C483.965 35.86 485.124 32.079 487.442 29.609C489.798 27.139 492.99 25.904 497.018 25.904H503.345ZM497.588 31.718C494.966 31.718 493.047 32.44 491.831 33.884C490.653 35.328 490.064 37.684 490.064 40.952C490.064 44.22 490.653 46.576 491.831 48.02C493.047 49.426 494.966 50.129 497.588 50.129H502.775C505.397 50.129 507.297 49.426 508.475 48.02C509.691 46.576 510.299 44.22 510.299 40.952C510.299 37.684 509.691 35.328 508.475 33.884C507.297 32.44 505.397 31.718 502.775 31.718H497.588ZM548.426 25.904C552.416 25.904 555.589 27.158 557.945 29.666C560.301 32.136 561.479 35.898 561.479 40.952C561.479 46.044 560.301 49.825 557.945 52.295C555.589 54.765 552.416 56 548.426 56H542.099C538.071 56 534.879 54.765 532.523 52.295C530.205 49.825 529.046 46.044 529.046 40.952C529.046 35.86 530.205 32.079 532.523 29.609C534.879 27.139 538.071 25.904 542.099 25.904H548.426ZM542.669 31.718C540.047 31.718 538.128 32.44 536.912 33.884C535.734 35.328 535.145 37.684 535.145 40.952C535.145 44.22 535.734 46.576 536.912 48.02C538.128 49.426 540.047 50.129 542.669 50.129H547.856C550.478 50.129 552.378 49.426 553.556 48.02C554.772 46.576 555.38 44.22 555.38 40.952C555.38 37.684 554.772 35.328 553.556 33.884C552.378 32.44 550.478 31.718 547.856 31.718H542.669ZM581.594 12.851V56H575.552V12.851H581.594ZM603.13 12.851V38.387H605.923C607.101 38.387 608.07 38.368 608.83 38.33C609.628 38.254 610.293 38.102 610.825 37.874C611.357 37.646 611.813 37.304 612.193 36.848C612.573 36.392 612.991 35.765 613.447 34.967L618.463 25.904H625.018L619.774 35.366C619.014 36.696 618.235 37.798 617.437 38.672C616.639 39.508 615.632 40.192 614.416 40.724C615.86 41.142 617.019 41.826 617.893 42.776C618.767 43.688 619.66 44.942 620.572 46.538L625.987 56H619.204L614.188 47.108C613.732 46.31 613.295 45.683 612.877 45.227C612.459 44.733 611.946 44.372 611.338 44.144C610.768 43.878 610.046 43.707 609.172 43.631C608.336 43.517 607.253 43.46 605.923 43.46H603.13V56H597.088V12.851H603.13ZM644.259 25.904V56H638.217V25.904H644.259ZM644.316 14.561V21.572H638.217V14.561H644.316ZM660.835 25.904V18.779H666.934V25.904H675.256V31.718H666.934V45.968C666.934 47.678 667.238 48.856 667.846 49.502C668.492 50.148 669.537 50.471 670.981 50.471H675.142V56H669.727C668.169 56 666.82 55.829 665.68 55.487C664.578 55.145 663.666 54.575 662.944 53.777C662.222 52.979 661.69 51.915 661.348 50.585C661.006 49.255 660.835 47.602 660.835 45.626V31.718H656.731V25.904H660.835Z" fill="black"/>
</svg>
